<svg width="354" height="238" viewBox="0 0 354 238" fill="none" xmlns="http://www.w3.org/2000/svg">
<g clip-path="url(#clip0_59_12)">
<path d="M285.942 151.438C286.257 151.466 286.573 151.401 286.848 151.254C287.123 151.106 287.343 150.883 287.478 150.613C287.614 150.344 287.658 150.042 287.605 149.748C287.552 149.454 287.405 149.182 287.183 148.97C287.151 148.822 287.129 148.717 287.097 148.569C287.112 148.538 287.128 148.507 287.143 148.476C287.496 147.782 288.059 147.202 288.76 146.809C289.462 146.415 290.271 146.226 291.086 146.264C291.902 146.303 292.686 146.568 293.343 147.026C293.999 147.484 294.497 148.114 294.774 148.838C295.882 151.727 297.331 154.636 297.574 157.65C297.681 158.982 297.542 160.321 297.164 161.609C300.393 155.708 302.239 149.222 302.576 142.59C302.659 140.926 302.643 139.259 302.528 137.596C302.433 136.233 302.274 134.877 302.053 133.527C300.839 126.206 297.801 119.26 293.188 113.261C290.877 111.937 289.052 109.977 287.959 107.645C287.563 106.807 287.297 105.919 287.171 105.009C287.437 105.054 287.707 105.087 287.974 105.115C288.057 105.123 288.145 105.131 288.228 105.138L288.259 105.141C288.553 105.166 288.847 105.111 289.108 104.982C289.369 104.853 289.585 104.656 289.73 104.414C289.874 104.172 289.942 103.896 289.924 103.619C289.906 103.342 289.803 103.075 289.629 102.852C289.52 102.713 289.411 102.574 289.302 102.435C289.137 102.22 288.967 102.01 288.802 101.795C288.782 101.775 288.764 101.753 288.748 101.731C288.558 101.486 288.367 101.246 288.177 101.001C288.572 100.479 289.09 100.049 289.689 99.7463C291.766 98.7189 294.517 99.6143 295.892 101.402C297.271 103.19 297.428 105.621 296.813 107.752C296.222 109.563 295.309 111.266 294.112 112.788C294.215 112.925 294.323 113.058 294.426 113.195C296.31 115.712 297.928 118.397 299.256 121.212C299.052 118.115 299.631 115.017 300.945 112.172C302.265 109.525 304.602 107.349 306.676 105.101C309.168 102.402 313.932 103.837 314.171 107.408C314.174 107.443 314.176 107.477 314.178 107.512C313.879 107.654 313.587 107.806 313.299 107.967C312.938 108.172 312.651 108.475 312.476 108.837C312.301 109.198 312.246 109.601 312.318 109.993C312.39 110.384 312.586 110.746 312.88 111.031C313.173 111.316 313.552 111.511 313.965 111.589L314.007 111.598C313.855 112.582 313.623 113.553 313.314 114.504C312.425 117.158 310.963 119.61 309.021 121.706C307.08 123.803 304.699 125.498 302.03 126.686C301.855 126.762 301.684 126.837 301.509 126.908C302.786 130.903 303.507 135.037 303.653 139.207C303.731 141.667 303.597 144.129 303.254 146.568L303.272 146.482C303.967 143.783 305.63 141.393 307.978 139.716C311.464 137.263 316.255 136.514 319.98 134.583C320.377 134.367 320.831 134.262 321.288 134.281C321.746 134.3 322.188 134.442 322.563 134.69C322.937 134.938 323.229 135.282 323.403 135.682C323.577 136.081 323.627 136.519 323.545 136.944C323.539 136.974 323.533 137.004 323.526 137.034C322.976 137.218 322.438 137.434 321.917 137.68C321.618 137.822 321.325 137.974 321.038 138.136C320.677 138.341 320.39 138.644 320.215 139.005C320.04 139.367 319.985 139.77 320.056 140.161C320.128 140.553 320.324 140.915 320.618 141.2C320.912 141.485 321.29 141.679 321.703 141.758L321.746 141.766C321.776 141.772 321.802 141.777 321.833 141.782C320.807 143.819 319.418 145.673 317.726 147.265C315.637 149.191 313.153 150.694 310.426 151.682C307.699 152.67 304.787 153.122 301.868 153.012L301.864 153.011C300.911 156.222 299.608 159.33 297.974 162.287L285.74 161.75C285.702 161.62 285.67 161.486 285.636 161.356C286.766 161.472 287.906 161.458 289.031 161.314C288.175 160.224 287.32 159.126 286.464 158.036C286.445 158.016 286.427 157.994 286.41 157.972C285.976 157.414 285.538 156.86 285.104 156.303L285.104 156.302C285.16 154.654 285.442 153.019 285.942 151.439L285.942 151.438Z" fill="#F2F2F2"/>
<path d="M39.445 51.7041C39.1325 51.7499 38.8127 51.704 38.5287 51.5727C38.2448 51.4414 38.0106 51.231 37.8578 50.97C37.7049 50.709 37.6409 50.41 37.6743 50.1135C37.7078 49.817 37.8371 49.5374 38.0447 49.3126C38.0667 49.1637 38.0824 49.0568 38.1044 48.908C38.0869 48.8779 38.0693 48.8478 38.0517 48.8178C37.654 48.1457 37.0546 47.5994 36.3287 47.2474C35.6027 46.8955 34.7827 46.7537 33.9715 46.8397C33.1603 46.9258 32.3942 47.2359 31.7694 47.7311C31.1446 48.2264 30.6889 48.8846 30.4596 49.6232C29.5428 52.5713 28.2872 55.5589 28.2419 58.5812C28.2225 59.917 28.449 61.246 28.9114 62.5088C25.3015 56.8077 23.034 50.4415 22.2627 43.8418C22.071 42.1855 21.9777 40.5204 21.9831 38.8543C21.9889 37.4883 22.0584 36.1254 22.1915 34.7658C22.9225 27.3877 25.4996 20.2783 29.7109 14.0215C31.9306 12.5656 33.6236 10.5033 34.5618 8.11238C34.9024 7.25258 35.1092 6.35082 35.1758 5.43516C34.9134 5.49537 34.6452 5.54368 34.3809 5.58742C34.2984 5.60002 34.2117 5.6131 34.1292 5.62573L34.0981 5.63026C33.807 5.67264 33.509 5.63478 33.2402 5.52124C32.9714 5.4077 32.7431 5.22332 32.5828 4.9903C32.4225 4.75728 32.3371 4.48555 32.3369 4.20783C32.3366 3.9301 32.4215 3.65823 32.5813 3.42493C32.6808 3.27979 32.7805 3.13471 32.8802 2.9897C33.031 2.76608 33.1867 2.54613 33.3375 2.32255C33.3554 2.30094 33.3719 2.27838 33.3871 2.25498C33.5608 1.99988 33.7349 1.74892 33.9086 1.49382C33.4803 0.995223 32.9357 0.59663 32.3171 0.329117C30.1772 -0.575403 27.4905 0.478537 26.2353 2.34315C24.9757 4.20819 24.9785 6.64321 25.7319 8.73475C26.4402 10.5076 27.4633 12.1539 28.7575 13.603C28.6635 13.7459 28.5648 13.8851 28.4709 14.0279C26.7555 16.6501 25.3168 19.4245 24.1755 22.3112C24.1761 19.2083 23.3952 16.1495 21.8973 13.3866C20.4062 10.8214 17.9313 8.78594 15.7138 6.66352C13.0501 4.11418 8.38857 5.824 8.38397 9.40241C8.38392 9.43706 8.38397 9.47168 8.38412 9.50629C8.69147 9.63061 8.99379 9.76502 9.29109 9.90952C9.66483 10.0933 9.97099 10.3791 10.1694 10.7297C10.3679 11.0803 10.4494 11.4792 10.4032 11.8742C10.3571 12.2692 10.1855 12.6419 9.91087 12.9433C9.63625 13.2448 9.27144 13.461 8.86424 13.5637L8.82255 13.5742C9.03923 14.5476 9.33408 15.504 9.70455 16.4352C10.7664 19.0321 12.3857 21.3941 14.4612 23.3733C16.5367 25.3524 19.0234 26.906 21.7656 27.9367C21.9453 28.0015 22.1206 28.0668 22.2998 28.1275C21.2871 32.189 20.8389 36.3574 20.9664 40.5279C21.0499 42.9875 21.3443 45.4368 21.8466 47.8516L21.8236 47.7666C20.9523 45.1134 19.1364 42.8249 16.6827 41.2877C13.0426 39.0426 8.21185 38.5737 4.36702 36.8633C3.95716 36.6707 3.49741 36.5926 3.04202 36.6382C2.58663 36.6839 2.15458 36.8513 1.79682 37.1209C1.43907 37.3904 1.17054 37.7508 1.0229 38.1595C0.87526 38.5682 0.854672 39.0082 0.963564 39.4275C0.971887 39.4573 0.980298 39.4871 0.988789 39.5169C1.54997 39.6681 2.10061 39.8521 2.63751 40.0679C2.94486 40.1923 3.24719 40.3267 3.54448 40.4712C3.91822 40.6549 4.22438 40.9408 4.42283 41.2914C4.62128 41.642 4.70277 42.0409 4.65664 42.4359C4.6105 42.8309 4.43888 43.2035 4.16426 43.505C3.88964 43.8065 3.52483 44.0227 3.11763 44.1254L3.0759 44.1359C3.04584 44.1431 3.02012 44.15 2.9901 44.1572C4.14674 46.1299 5.65493 47.9002 7.4486 49.3906C9.65965 51.1905 12.2374 52.5457 15.0237 53.3731C17.81 54.2005 20.7462 54.4826 23.6523 54.2021L23.6567 54.2017C24.8176 57.3505 26.3225 60.377 28.1471 63.2325L40.3223 61.984C40.3512 61.8519 40.3753 61.7162 40.3999 61.5847C39.2806 61.767 38.1419 61.8195 37.0091 61.7409C37.7919 60.6033 38.5737 59.4574 39.3564 58.3198C39.3743 58.2982 39.3909 58.2757 39.4061 58.2523C39.8025 57.6705 40.2039 57.0923 40.6004 56.5105L40.6005 56.5098C40.4358 54.8679 40.0476 53.2528 39.4454 51.7043L39.445 51.7041Z" fill="#F2F2F2"/>
<path d="M207.655 47.4503C208.258 47.6066 208.817 47.8856 209.293 48.2676C209.769 48.6496 210.15 49.1254 210.41 49.6613C210.67 50.1973 210.802 50.7804 210.796 51.3696C210.791 51.9589 210.649 52.5399 210.38 53.0717L216.914 59.9199L213.468 64.6781L204.385 54.885C203.468 54.3996 202.771 53.6137 202.426 52.6762C202.082 51.7387 202.115 50.7147 202.518 49.7983C202.921 48.8819 203.666 48.1367 204.613 47.704C205.56 47.2712 206.643 47.181 207.655 47.4503V47.4503Z" fill="#A0616A"/>
<path d="M268.821 64.2661C268.232 63.3623 267.46 62.577 266.548 61.9553C265.637 61.3335 264.604 60.8875 263.509 60.6429C262.414 60.3984 261.279 60.3599 260.168 60.5299C259.058 60.6999 257.993 61.0749 257.037 61.6334L235.55 74.1798L212.371 55.6049L206.605 60.6669L232.21 91.9872L265.489 75.631C264.713 76.0127 269.76 65.7062 268.821 64.2661Z" fill="#CCCCCC"/>
<path d="M226.254 105.984C226.257 115.989 224.168 125.896 220.108 135.139C216.048 144.383 210.096 152.782 202.592 159.857C195.088 166.931 186.179 172.543 176.374 176.37C166.569 180.198 156.061 182.167 145.449 182.165C100.821 182.165 64.6427 148.057 64.6427 105.984C64.635 97.7997 66.0266 89.6681 68.7638 81.9017C74.1379 66.734 84.4335 53.5428 98.1947 44.1934C111.956 34.844 128.486 29.8096 145.449 29.8019C160.077 29.7972 174.433 33.5377 186.983 40.6242C199.533 47.7108 209.806 57.8773 216.706 70.0385C218.417 73.039 219.909 76.1457 221.173 79.337C221.348 79.7813 221.518 80.2257 221.684 80.6743V80.6786C222.425 82.6508 223.078 84.6597 223.642 86.7054C225.382 93 226.26 99.4787 226.254 105.984V105.984Z" fill="#3F3D56"/>
<path d="M136.608 54.5848C132.976 52.7334 128.944 51.6883 124.82 51.5292C120.695 51.3701 116.586 52.1012 112.806 53.6667C109.478 55.0321 105.974 57.4815 104.864 61.9047C109.354 59.4065 115.166 63.3537 116.321 69.6858L116.052 69.7559C115.441 74.1417 116.804 78.9167 119.441 81.6363C119.788 78.8115 121.758 76.8889 123.695 75.688C125.633 74.487 127.777 73.6146 129.256 71.5503C131.009 69.103 131.455 65.5264 132.151 62.2636C132.848 59.0008 134.169 55.4939 136.608 54.5848Z" fill="white"/>
<path d="M111.474 91.9069C110.231 93.6675 108.57 94.7722 107.079 96.1477C105.593 97.5275 104.179 99.3896 103.883 101.781C103.694 103.313 103.986 104.87 103.946 106.42C103.905 107.969 103.358 109.712 102.24 110.097C100.476 110.698 99.1289 107.609 97.3152 107.393C95.8742 107.224 94.5768 109.361 94.9943 111.215C95.4118 113.069 97.3736 113.89 98.5004 112.679C99.5195 114.292 98.8012 117.216 97.2704 117.711C97.1087 118.727 96.9472 119.739 96.79 120.754C92.9203 118.202 89.0102 115.608 85.7196 111.871C82.0599 107.75 79.79 102.691 79.2013 97.3455C78.7748 93.0497 79.4078 88.1359 77.3158 84.8305C75.6413 82.1853 72.7682 81.6012 70.1824 81.7663C69.7111 81.796 69.2352 81.8467 68.7639 81.9018C70.2888 77.5838 72.2256 73.4049 74.5504 69.4164C75.0765 69.2035 75.5654 68.9167 76.0004 68.5657C78.4067 66.64 79.4751 62.7421 81.4279 60.046C81.5536 59.8725 81.6838 59.7032 81.8185 59.5382C83.8162 57.0792 86.4918 55.8137 89.0776 54.6371C94.8013 52.0174 100.691 49.3637 106.734 49.7277L105.014 49.8843C103.008 55.1831 100.999 60.482 98.9897 65.7809C98.6844 66.5934 98.3762 67.4074 98.065 68.2229C96.9247 71.2363 95.7485 74.4444 95.9236 77.8175C96.0269 79.8152 96.763 81.9483 98.1637 82.6339C99.47 83.2688 100.898 82.49 102.159 81.7197C102.693 81.3981 103.223 81.0764 103.757 80.7505C105.674 79.5866 107.798 78.3931 109.822 79.1719C111.676 79.8829 113.045 82.2572 113.306 84.8178C113.545 87.3069 112.9 89.8002 111.474 91.9069V91.9069Z" fill="white"/>
<path d="M122.875 128.084C117.276 124.834 111.678 121.584 106.079 118.334L106.174 118.103C102.694 119.353 101.248 125.187 101.824 129.957C102.399 134.728 104.35 138.992 105.335 143.64C106.664 150.001 106.162 156.582 103.883 162.698C111.244 154.911 117.759 146.447 123.33 137.434C124.108 136.298 124.701 135.058 125.089 133.756C125.445 132.371 125.39 130.706 124.678 129.596C124.219 128.958 123.6 128.438 122.875 128.084V128.084Z" fill="white"/>
<path d="M100.78 68.9601C100.185 70.2203 99.9564 71.9005 100.496 73.2044C101.047 74.536 102.212 75.1378 103.284 75.6389L106.377 77.0845C107.406 77.5654 108.516 78.0511 109.565 77.6554C110.83 77.1782 111.708 75.308 111.481 73.5717C111.239 71.7241 110.004 70.4532 108.861 69.371C107.262 67.8564 105.664 66.3419 104.065 64.8274L103.164 65.8678C102.189 66.764 101.383 67.8096 100.78 68.9601V68.9601Z" fill="white"/>
<path d="M209.671 88.7115C211.063 89.0205 212.455 89.3294 213.846 89.6384C213.604 94.0697 211.274 98.1708 208.149 99.6563C206.848 100.274 205.398 100.503 204.32 101.658C203.346 102.708 202.852 104.341 202.399 105.903C201.604 108.629 200.81 111.354 200.015 114.08C199.162 117.017 198.067 120.28 195.849 121.338C193.946 122.248 191.768 121.135 190.305 119.269C188.841 117.402 187.948 114.893 187.082 112.446C187.135 115.113 185.82 117.728 183.957 118.655C182.09 119.582 179.818 118.744 178.57 116.674C177.672 115.189 177.3 113.229 176.42 111.723C175.54 110.216 173.695 109.353 172.734 110.766C172.101 111.706 172.182 113.145 171.868 114.338C171.378 116.192 169.897 117.356 168.429 117.457C166.965 117.559 165.538 116.763 164.312 115.684C161.785 113.449 159.922 109.903 159.199 105.962C158.88 104.206 158.791 102.293 159.343 100.647C159.895 99.0003 161.228 97.7306 162.553 98.0438C163.423 96.3085 161.704 94.0061 160.155 94.2093C158.602 94.4124 157.385 95.9826 156.11 97.1889C154.84 98.395 153.062 99.2711 151.783 98.0734C151.792 99.1865 150.831 99.9229 150.001 99.8298C149.175 99.7409 148.438 99.1146 147.68 98.6701C144.748 96.9476 141.027 98.0903 138.944 101.349C140.246 96.1265 142.154 90.1335 146.153 88.9062C147.788 88.4025 149.57 88.8173 151.114 87.9454C153.848 86.4007 154.4 80.5643 152.039 78.1561C152.34 80.433 152.281 83.0909 151.006 84.6485C149.731 86.206 147.056 85.1902 147.217 82.8878C146.849 84.4749 145.018 84.7162 144.174 83.4972C143.325 82.2784 143.397 80.285 143.999 78.829C144.6 77.3731 145.624 76.3277 146.616 75.3247C148.748 73.1704 150.912 70.9908 153.381 69.6364C155.855 68.2821 158.71 67.825 161.188 69.1709C162.494 69.8819 163.643 71.067 164.977 71.6933C166.31 72.3239 168.002 72.2436 168.887 70.7707C169.879 69.1285 169.412 66.6907 169.78 64.638C170.44 61.011 174.287 59.3138 176.42 61.7093C174.826 61.3241 173.178 63.1017 172.981 65.256C172.779 67.4102 173.933 69.5857 175.477 70.2374C178.072 71.3209 180.613 68.5953 182.574 66.0728C184.621 63.4319 186.672 60.7923 188.725 58.1542C189.052 57.705 189.42 57.283 189.824 56.8929C190.467 56.3021 191.325 55.9637 192.222 55.9464C193.12 55.9291 193.991 56.2342 194.659 56.7998C196.733 58.3954 197.708 61.667 199.409 63.9186C201.878 67.1902 205.573 67.9858 209.011 68.6207C211.575 69.0905 214.14 69.5631 216.706 70.0385C218.417 73.039 219.909 76.1456 221.173 79.3369C216.827 81.0764 212.818 84.3311 209.671 88.7115Z" fill="white"/>
<path d="M217.958 139.635C216.035 143.317 213.798 146.845 211.269 150.186C209.653 149.534 207.916 150.698 206.403 151.79C204.823 152.933 202.924 154.046 201.303 153.005C199.647 151.938 199.113 148.954 199.638 146.588C200.163 144.227 201.474 142.348 202.744 140.562C204.091 138.666 205.532 136.698 207.404 135.961C209.281 135.225 211.691 136.266 212.239 138.78L213.568 138.737C212.823 137.773 213.213 135.775 214.214 135.424C215.368 135.013 216.369 136.507 217.052 137.828C217.357 138.424 217.667 139.025 217.958 139.635Z" fill="white"/>
<path d="M167.066 121.758C164.21 121.927 161.947 118.612 160.444 115.351C158.941 112.09 157.569 108.361 154.992 106.701C153.519 105.752 151.84 105.622 150.243 105.163C148.646 104.703 146.974 103.752 146.211 101.815L144.399 101.125C142.006 102.394 139.582 103.685 137.52 105.749C135.207 108.065 133.767 111.034 133.421 114.198C133.075 117.617 134.353 121.429 136.741 122.713C138.628 123.728 140.825 123.089 142.736 124.018C145.124 125.178 146.542 128.55 147.079 131.88C147.615 135.209 147.479 138.669 147.863 142.036C148.247 145.403 149.305 148.907 151.495 150.632C154.236 152.792 158.257 150.997 159.487 147.067C160.09 145.139 160.069 142.963 160.52 140.962C161.315 137.437 163.458 134.822 165.158 131.931C166.859 129.04 168.197 125.113 167.066 121.758Z" fill="white"/>
<path d="M138.843 87.1242C139.109 87.3553 139.358 87.6041 139.586 87.8685C139.823 88.2536 139.944 88.6923 139.936 89.1373C139.928 89.5824 139.791 90.0169 139.541 90.3941C139.885 90.3756 140.221 90.2901 140.528 90.1429C140.835 89.9957 141.107 89.79 141.326 89.5389C141.847 88.9792 142.305 88.3702 142.694 87.7216C142.985 87.2738 143.295 86.6683 143.097 86.1364C142.962 85.7733 142.643 85.6184 142.42 85.3454C142.065 84.9127 141.977 84.2253 141.794 83.6314C141.397 82.3485 140.448 81.4052 139.417 81.2704L139.561 81.2962C139.13 81.4352 138.83 82.0797 138.925 82.6597C139.011 83.1878 139.371 83.6263 139.336 84.1649C139.284 84.9395 138.463 85.303 138.412 86.0777C138.404 86.4663 138.559 86.8422 138.843 87.1242V87.1242Z" fill="white"/>
<path d="M133.949 73.9615C133.953 73.9604 133.958 73.9602 133.962 73.9592C134.049 73.8837 134.131 73.8019 134.205 73.7145L133.949 73.9615Z" fill="#E6E6E6"/>
<path d="M134.806 77.5973C135.437 77.2144 135.79 76.1556 135.581 75.2694C135.374 74.3887 134.639 73.7966 133.962 73.9592C133.765 74.147 133.521 74.2846 133.253 74.3592C132.985 74.4337 132.7 74.4426 132.427 74.3851C132.009 74.2835 131.549 74.0217 131.186 74.3192C130.978 74.5413 130.832 74.809 130.763 75.0978C130.628 75.4869 130.494 75.8759 130.359 76.2649C130.295 76.4042 130.279 76.5587 130.312 76.7072C130.337 76.7667 130.379 76.819 130.432 76.859C130.486 76.899 130.549 76.9254 130.616 76.9356C131.423 77.1598 132.23 77.384 133.036 77.6082C133.624 77.7715 134.259 77.929 134.806 77.5973Z" fill="white"/>
<path d="M195.698 127.792C195.325 127.217 194.952 126.641 194.58 126.066C194.213 125.399 193.713 124.806 193.106 124.321C192.972 124.215 192.818 124.136 192.651 124.088C192.485 124.04 192.31 124.023 192.137 124.039C191.963 124.056 191.795 124.105 191.643 124.183C191.49 124.262 191.355 124.368 191.246 124.496L191.292 124.825C192.142 125.83 193.041 126.947 193.256 128.439C193.341 129.027 193.312 129.636 193.386 130.226C193.461 130.817 193.673 131.43 194.077 131.684C194.664 132.054 195.354 131.509 195.771 130.844C196.145 130.297 196.313 129.648 196.247 129.001C196.154 128.567 195.967 128.155 195.698 127.792V127.792Z" fill="white"/>
<path d="M212.292 105.813C212.4 105.146 212.508 104.48 212.616 103.813C212.791 103.081 212.812 102.323 212.68 101.583C212.65 101.421 212.585 101.267 212.491 101.129C212.397 100.991 212.274 100.872 212.131 100.78C211.987 100.687 211.825 100.622 211.654 100.59C211.484 100.557 211.308 100.556 211.137 100.589L210.947 100.868C210.911 102.153 210.836 103.553 209.982 104.825C209.645 105.327 209.207 105.774 208.86 106.272C208.514 106.769 208.258 107.366 208.393 107.807C208.59 108.446 209.489 108.447 210.264 108.192C210.923 108.001 211.494 107.606 211.886 107.071C212.112 106.682 212.25 106.254 212.292 105.813V105.813Z" fill="#E6E6E6"/>
<path d="M201.547 128.541C201.729 128.047 201.466 127.48 201.411 126.934C201.384 126.229 201.582 125.532 201.98 124.935C202.375 124.371 202.674 123.752 202.867 123.101C202.948 122.804 202.934 122.492 202.825 122.203C202.701 121.942 202.402 121.822 202.231 122.029L202.598 122.252C202.102 122.169 201.593 122.192 201.109 122.32C200.832 122.42 200.585 122.581 200.389 122.79C200.192 122.999 200.052 123.249 199.98 123.52C199.919 123.942 199.82 124.358 199.684 124.764C199.465 125.188 199.041 125.329 198.775 125.702C198.594 126.032 198.502 126.399 198.509 126.771C198.515 127.143 198.62 127.507 198.813 127.831C199.147 128.361 199.679 128.756 200.304 128.937C200.752 129.088 201.342 129.096 201.547 128.541Z" fill="white"/>
<path d="M211.963 131.504C212.125 131.901 212.342 132.277 212.609 132.621C213.107 133.094 213.785 132.803 214.39 132.688C214.939 132.606 215.501 132.666 216.017 132.861C216.533 133.056 216.983 133.379 217.32 133.796C217.085 132.693 216.573 131.659 215.827 130.781C215.08 129.903 214.122 129.207 213.031 128.751C211.605 128.203 210.103 128.15 208.62 128.101L208.363 128.163C209.016 129.954 211.066 129.914 211.963 131.504Z" fill="white"/>
<path d="M167.847 135.168L167.851 135.176C167.876 135.131 167.9 135.086 167.925 135.04L167.847 135.168Z" fill="#E6E6E6"/>
<path d="M166.267 138.051C165.923 138.641 165.626 139.255 165.381 139.887C165.056 140.912 164.84 141.964 164.738 143.029C164.658 143.634 164.633 144.408 165.036 144.703C165.151 144.775 165.291 144.805 165.428 144.787C165.565 144.77 165.691 144.706 165.782 144.607C166.006 144.384 166.189 144.128 166.323 143.849C167.114 142.565 167.728 141.191 168.15 139.76C168.535 138.254 168.532 136.48 167.851 135.176C167.323 136.134 166.795 137.093 166.267 138.051Z" fill="white"/>
<path d="M151.023 61.2282C151.274 61.4595 151.592 61.6165 151.936 61.6799C152.281 61.7433 152.637 61.7103 152.962 61.585C153.635 61.3077 154.252 60.9234 154.786 60.4489C155.229 60.1402 155.604 59.7541 155.892 59.3116C156.051 59.0472 156.153 58.7558 156.191 58.4543C156.23 58.1527 156.205 57.8469 156.119 57.5544C155.869 56.8656 155.235 56.6347 154.676 56.4783C153.78 56.228 152.885 55.9777 151.99 55.7275L152.637 55.1771C151.971 54.84 151.234 55.4657 150.817 56.2404C150.55 56.7462 150.364 57.2865 150.265 57.8437C150.042 59.0596 150.26 60.5076 151.023 61.2282Z" fill="#E6E6E6"/>
<path d="M166.83 56.2255C167.082 56.4878 167.431 56.6497 167.805 56.6784C168.18 56.7071 168.552 56.6005 168.846 56.3801C169.099 56.2009 169.309 55.9735 169.462 55.7127C169.616 55.4518 169.71 55.1634 169.737 54.8662C169.8 54.2023 169.452 53.4643 168.955 53.407L169.069 52.7854C168.111 52.6223 166.932 52.5896 166.418 53.6864C166.245 54.1066 166.192 54.5622 166.264 55.0078C166.337 55.4533 166.532 55.8733 166.83 56.2255Z" fill="#E6E6E6"/>
<path d="M164.718 23.169C159.102 22.5718 153.464 24.1024 149.045 27.4241C144.625 30.7459 141.787 35.5867 141.153 40.8816C139.834 51.9077 145.995 75.8513 157.229 85.763C162.518 66.7731 181.054 55.5093 183.506 45.3857C186.127 34.5681 176.414 24.4128 164.718 23.169Z" fill="#EE24FF"/>
<path d="M160.834 47.6813C164.672 47.6813 167.784 44.7477 167.784 41.1289C167.784 37.5101 164.672 34.5765 160.834 34.5765C156.996 34.5765 153.884 37.5101 153.884 41.1289C153.884 44.7477 156.996 47.6813 160.834 47.6813Z" fill="white"/>
<path d="M153.526 95.2106C156.04 95.2106 158.078 93.2891 158.078 90.9189C158.078 88.5487 156.04 86.6272 153.526 86.6272C151.012 86.6272 148.974 88.5487 148.974 90.9189C148.974 93.2891 151.012 95.2106 153.526 95.2106Z" fill="#EE24FF"/>
<path opacity="0.2" d="M166.585 36.4344C167.367 36.8776 168.049 37.4617 168.592 38.1534C169.135 38.8451 169.528 39.6309 169.748 40.4658C169.969 41.3007 170.013 42.1684 169.879 43.0194C169.744 43.8704 169.432 44.688 168.962 45.4256C168.492 46.1631 167.872 46.8061 167.139 47.3179C166.405 47.8297 165.572 48.2003 164.686 48.4084C162.898 48.8288 161.005 48.5621 159.425 47.6671C161.036 48.0049 162.722 47.7912 164.181 47.0643C165.64 46.3374 166.777 45.1446 167.389 43.6995C168 42.2544 168.046 40.6513 167.518 39.1771C166.991 37.703 165.924 36.454 164.509 35.6537C165.241 35.8067 165.942 36.0703 166.585 36.4344V36.4344Z" fill="#231F20"/>
<path opacity="0.2" d="M183.533 45.4068C181.081 55.5305 162.546 66.7943 157.256 85.7841C156.2 84.843 155.219 83.8296 154.321 82.752C160.264 64.902 177.646 54.0558 180.015 44.2745C182.136 35.52 176.179 27.2001 167.631 23.6855C177.978 26.1379 185.935 35.4936 183.533 45.4068Z" fill="#231F20"/>
<path d="M99.5886 48.7355C95.3709 48.287 91.137 49.4364 87.8182 51.931C84.4995 54.4255 82.3677 58.0608 81.892 62.0371C80.9012 70.3173 85.5283 88.2981 93.9644 95.7414C97.9366 81.4807 111.856 73.022 113.698 65.4195C115.665 57.2959 108.371 49.6696 99.5886 48.7355Z" fill="#EE24FF"/>
<path d="M96.6716 67.1434C99.5541 67.1434 101.891 64.9404 101.891 62.2228C101.891 59.5052 99.5541 57.3021 96.6716 57.3021C93.789 57.3021 91.4523 59.5052 91.4523 62.2228C91.4523 64.9404 93.789 67.1434 96.6716 67.1434Z" fill="white"/>
<path d="M91.1837 102.836C93.0717 102.836 94.6022 101.393 94.6022 99.6134C94.6022 97.8334 93.0717 96.3905 91.1837 96.3905C89.2957 96.3905 87.7652 97.8334 87.7652 99.6134C87.7652 101.393 89.2957 102.836 91.1837 102.836Z" fill="#EE24FF"/>
<path opacity="0.2" d="M100.99 58.6974C101.578 59.0302 102.09 59.4689 102.497 59.9883C102.905 60.5078 103.2 61.0978 103.366 61.7248C103.532 62.3518 103.565 63.0034 103.464 63.6425C103.362 64.2816 103.129 64.8956 102.775 65.4494C102.422 66.0033 101.957 66.4862 101.406 66.8705C100.855 67.2549 100.229 67.5332 99.5643 67.6895C98.8993 67.8458 98.2081 67.8771 97.5302 67.7815C96.8524 67.686 96.2011 67.4655 95.6136 67.1327C96.8233 67.3864 98.0894 67.226 99.1851 66.6801C100.281 66.1341 101.135 65.2384 101.594 64.1532C102.053 63.068 102.088 61.8641 101.691 60.7571C101.295 59.65 100.494 58.7121 99.4311 58.1111C99.9809 58.226 100.507 58.424 100.99 58.6974Z" fill="#231F20"/>
<path opacity="0.2" d="M113.718 65.4354C111.876 73.0379 97.957 81.4966 93.9849 95.7573C93.1915 95.0506 92.4546 94.2895 91.7803 93.4803C96.2439 80.0756 109.297 71.9304 111.076 64.585C112.669 58.0107 108.195 51.7627 101.776 49.1234C109.546 50.965 115.521 57.9909 113.718 65.4354Z" fill="#231F20"/>
<path d="M262.994 226.988H257.263L254.537 206.149L262.995 206.149L262.994 226.988Z" fill="#A0616A"/>
<path d="M266.077 237.246H262.01L261.285 233.627L259.426 237.246H248.641C248.124 237.246 247.62 237.09 247.204 236.802C246.787 236.513 246.48 236.106 246.326 235.641C246.172 235.175 246.18 234.676 246.349 234.215C246.517 233.754 246.838 233.357 247.263 233.08L255.876 227.472V223.813L264.934 224.323L266.077 237.246Z" fill="#2F2E41"/>
<path d="M240.798 226.988H235.067L232.341 206.149L240.799 206.149L240.798 226.988Z" fill="#A0616A"/>
<path d="M243.881 237.246H239.814L239.088 233.627L237.229 237.246H226.445C225.928 237.246 225.424 237.09 225.008 236.802C224.591 236.513 224.284 236.106 224.13 235.641C223.976 235.175 223.984 234.676 224.153 234.215C224.321 233.754 224.642 233.357 225.067 233.08L233.679 227.472V223.813L242.738 224.323L243.881 237.246Z" fill="#2F2E41"/>
<path d="M219.027 171.968C220.123 173.519 232.054 216.152 232.054 216.152L242.632 217.289L241.376 206.562L239.457 187.58L236.485 174.91C236.485 174.91 246.98 152.391 247.644 150.598L248.115 149.31L251.394 177.365C251.784 178.367 251.954 179.433 251.893 180.498C251.794 182.25 253.659 208.614 253.659 208.614L254.555 218.069L263.618 219.256L267.296 202.897C270.366 197.583 268.606 178.699 267.35 176.941C266.095 175.184 266.594 162.942 266.594 162.942C268.197 162.41 277.759 131.672 272.976 131.853C273.283 130.214 273.524 128.751 273.524 128.751L265.223 122.44L244.447 117.348L239.205 114.975C239.205 114.975 229.844 131.295 229.937 132.106C230.066 133.134 229.816 134.173 229.23 135.048L219.778 164.871C219.778 164.871 217.919 170.402 219.027 171.968Z" fill="#2F2E41"/>
<path d="M271.223 65.2517L267.917 58.6358L256.668 59.0434L252.999 65.9262C252.999 65.9262 242.513 77.7344 242.173 81.5739C241.746 86.403 245.294 110.07 241.746 108.536C241.746 108.536 233.382 117.792 238.331 117.792C243.281 117.792 265.668 131.041 267.137 132.531C268.606 134.021 275.164 134.987 274.614 131.877C274.064 128.766 271.223 111.943 271.223 111.943L278.914 85.4907C281.127 79.7797 281.816 73.3736 276.813 69.5373L271.223 65.2517Z" fill="#CCCCCC"/>
<path d="M229.554 45.7794C228.049 45.2163 226.442 44.9382 224.823 44.9608C223.204 44.9834 221.606 45.3064 220.12 45.9113C218.634 46.5162 217.288 47.3912 216.161 48.4863C215.033 49.5814 214.145 50.8752 213.548 52.2937C211.036 58.2596 210.62 72.5066 215.294 79.647C221.305 69.8041 233.465 66.1696 236.464 60.8696C239.668 55.2064 235.882 48.1476 229.554 45.7794Z" fill="#EE24FF"/>
<path d="M224.494 59.0389C226.714 59.0389 228.514 57.3419 228.514 55.2486C228.514 53.1552 226.714 51.4582 224.494 51.4582C222.273 51.4582 220.473 53.1552 220.473 55.2486C220.473 57.3419 222.273 59.0389 224.494 59.0389Z" fill="white"/>
<path d="M212.397 84.4777C213.851 84.4777 215.03 83.3662 215.03 81.9951C215.03 80.624 213.851 79.5125 212.397 79.5125C210.943 79.5125 209.764 80.624 209.764 81.9951C209.764 83.3662 210.943 84.4777 212.397 84.4777Z" fill="#EE24FF"/>
<path opacity="0.2" d="M228.46 53.4512C229.196 54.1772 229.597 55.1491 229.574 56.1535C229.551 57.1578 229.106 58.1124 228.336 58.8075C227.567 59.5026 226.536 59.8814 225.471 59.8606C224.406 59.8398 223.393 59.4211 222.655 58.6965C223.499 59.1156 224.475 59.2376 225.406 59.0407C226.338 58.8437 227.165 58.3407 227.739 57.6216C228.313 56.9024 228.596 56.0142 228.539 55.1158C228.482 54.2174 228.088 53.3676 227.427 52.7183C227.811 52.9084 228.16 53.1559 228.46 53.4512Z" fill="#231F20"/>
<path opacity="0.2" d="M236.476 60.8853C233.476 66.1853 221.316 69.8198 215.306 79.6628C214.868 78.9862 214.483 78.2801 214.156 77.5501C220.348 68.437 231.796 64.8705 234.694 59.7497C237.288 55.1666 235.302 49.6698 231.096 46.4845C236.478 49.3344 239.412 55.6955 236.476 60.8853Z" fill="#231F20"/>
<path d="M211.21 81.1403C211.822 81.0213 212.455 81.0303 213.063 81.1667C213.671 81.3031 214.24 81.5635 214.73 81.9296C215.219 82.2957 215.618 82.7586 215.898 83.2856C216.177 83.8127 216.331 84.3911 216.347 84.9802L225.468 88.2809L224.693 93.9958L211.881 89.1639C210.83 89.1248 209.83 88.7234 209.072 88.0358C208.313 87.3481 207.848 86.4221 207.766 85.4331C207.683 84.444 207.988 83.4608 208.623 82.6696C209.258 81.8784 210.178 81.3342 211.21 81.1402L211.21 81.1403Z" fill="#A0616A"/>
<path d="M274.941 69.3635C273.981 68.8107 272.914 68.4422 271.803 68.2789C270.691 68.1157 269.556 68.161 268.463 68.4122C267.37 68.6634 266.34 69.1156 265.432 69.7429C264.525 70.3701 263.758 71.1601 263.175 72.0674L250.083 92.4497L220.483 85.8348L217.786 92.8147L255.692 109.743L274.891 80.9145C277.765 77.1063 279.173 71.7989 274.941 69.3635Z" fill="#CCCCCC"/>
<path d="M275.43 44.3843C275.431 46.3488 274.92 48.2834 273.943 50.0184C272.965 51.7533 271.551 53.2355 269.824 54.3349C268.097 55.4342 266.111 56.1172 264.038 56.3236C261.966 56.5301 259.872 56.2539 257.939 55.5192C256.007 54.7845 254.295 53.6138 252.955 52.1098C251.614 50.6059 250.686 48.8147 250.251 46.8934C249.816 44.9722 249.888 42.9797 250.461 41.0909C251.033 39.202 252.089 37.4745 253.535 36.0601L253.596 36.0026C253.698 35.9017 253.8 35.8009 253.907 35.7049C253.907 35.7049 253.908 35.7048 253.909 35.7045C253.909 35.7043 253.91 35.7039 253.91 35.7035C253.911 35.703 253.911 35.7025 253.911 35.7019C253.912 35.7013 253.912 35.7007 253.912 35.7001C254.044 35.5849 254.176 35.4696 254.314 35.3592C256.153 33.8388 258.419 32.8505 260.839 32.5125C263.258 32.1745 265.73 32.5011 267.958 33.4534C270.186 34.4057 272.076 35.9431 273.401 37.8818C274.726 39.8204 275.431 42.078 275.43 44.3843V44.3843Z" fill="#2F2E41"/>
<path d="M259.564 57.2247C265.459 57.2247 270.239 52.7191 270.239 47.1611C270.239 41.6031 265.459 37.0974 259.564 37.0974C253.669 37.0974 248.89 41.6031 248.89 47.1611C248.89 52.7191 253.669 57.2247 259.564 57.2247Z" fill="#9E616A"/>
<path d="M270.9 50.031L269.131 49.7365C268.143 49.5672 267.233 49.1174 266.523 48.4473C265.813 47.7773 265.337 46.9189 265.159 45.987L263.433 48.7137L263.358 48.7373C259.246 50.0244 254.968 49.6394 250.282 47.5621C248.942 46.9629 247.642 46.2873 246.39 45.539L246.297 45.4845L246.29 45.3822C246.051 42.1084 246.83 39.3734 248.485 37.6809C249.12 37.0442 249.891 36.5412 250.746 36.2049C251.602 35.8685 252.524 35.7065 253.45 35.7294C253.516 35.7131 253.577 35.6816 253.627 35.6376C253.651 35.6211 253.674 35.6048 253.698 35.5893V35.5724L253.821 35.5179C254.084 35.4012 254.352 35.2894 254.621 35.1872C256.733 34.4164 259.033 34.223 261.257 34.6293C263.48 35.0357 265.537 36.0252 267.191 37.4843C270.479 40.4437 271.987 45.4101 270.944 49.843L270.9 50.031Z" fill="#2F2E41"/>
<path d="M293.414 58.6053C289.782 56.8377 294.454 50.4223 293.515 46.6714C292.576 42.9205 285.816 41.7141 285.385 37.8816C284.954 34.0492 283.941 30.0964 281.259 27.1883C279.545 25.33 277.019 23.9582 274.419 24.1909C273.539 24.2697 272.687 24.5263 271.922 24.9433C271.157 25.3602 270.496 25.9278 269.985 26.6073C269.473 27.2867 269.123 28.0622 268.958 28.8808C268.793 29.6993 268.817 30.5418 269.028 31.3508C268.288 30.3618 266.372 30.5762 265.898 31.7012C265.476 32.7013 266.407 33.9127 267.504 34.0012C268.938 35.6713 270.581 37.4437 272.828 37.7806C273.186 37.8581 273.558 37.8579 273.916 37.78C274.274 37.7021 274.608 37.5485 274.894 37.3309C275.423 36.8523 275.464 35.8953 274.837 35.5376C277.661 36.5952 279.317 39.4739 279.736 42.3114C280.155 45.1489 279.575 48.0199 279.193 50.862C278.811 53.7041 278.646 56.6939 279.828 59.3332C281.225 62.4515 284.44 64.6864 287.949 65.4032C291.458 66.1199 295.195 65.4194 298.371 63.8412C301.548 62.2628 304.196 59.8534 306.36 57.1522C302.633 59.6473 297.476 60.582 293.414 58.6053Z" fill="#2F2E41"/>
<path d="M270.445 49.7513C270.445 49.7513 267.283 38.6236 253.728 36.0553C253.713 36.0506 253.662 36.0313 253.596 36.0026C253.555 35.9786 253.504 35.9545 253.453 35.9305C253.606 35.8489 253.754 35.777 253.907 35.7049C253.907 35.7049 253.908 35.7048 253.909 35.7045C253.909 35.7043 253.91 35.7039 253.91 35.7035C253.911 35.703 253.911 35.7025 253.911 35.7019C253.912 35.7013 253.912 35.7007 253.912 35.7001C254.044 35.5849 254.176 35.4697 254.314 35.3593L254.701 35.3737C254.701 35.3737 268.302 33.343 270.445 49.7513Z" fill="#FD6584"/>
<path opacity="0.2" d="M263.366 85.4571L255.71 93.8191L243.06 90.2975L256.851 96.2887L263.366 85.4571Z" fill="black"/>
<path d="M309.317 237.876L191.613 238C191.478 238 191.35 237.949 191.255 237.859C191.16 237.769 191.106 237.648 191.106 237.521C191.106 237.394 191.16 237.272 191.255 237.183C191.35 237.093 191.478 237.042 191.613 237.042L309.317 236.918C309.451 236.918 309.581 236.968 309.676 237.058C309.771 237.148 309.825 237.27 309.825 237.397C309.825 237.524 309.771 237.646 309.676 237.736C309.581 237.826 309.451 237.876 309.317 237.876V237.876Z" fill="#CACACA"/>
<path d="M314.483 163.412C308.971 163.412 302.931 163.216 296.36 162.823C262.377 160.789 218.359 153.715 172.414 142.906C126.469 132.098 84.086 118.844 53.0732 105.588C37.9659 99.1305 26.3712 93.0179 18.6114 87.4197C10.3958 81.4933 6.80222 76.3274 7.92999 72.0662C10.1274 63.7647 29.5844 61.9485 45.52 61.8868L45.5254 63.094C23.6417 63.1787 10.7314 66.469 9.17262 72.3586C7.18698 79.8598 23.381 91.5705 53.602 104.489C84.5466 117.715 126.852 130.943 172.724 141.735C218.596 152.527 262.534 159.588 296.442 161.618C329.556 163.601 349.688 160.436 351.674 152.935C353.322 146.707 342.455 137.532 321.073 127.1L321.662 126.028C337.198 133.608 355.231 144.48 352.916 153.227C351.788 157.488 346.042 160.457 335.836 162.049C330.018 162.957 322.872 163.412 314.483 163.412Z" fill="#EE24FF"/>
</g>
<defs>
<clipPath id="clip0_59_12">
<rect width="352.236" height="238" fill="white" transform="translate(0.88179)"/>
</clipPath>
</defs>
</svg>
